<svg width="52" height="41" viewBox="0 0 52 41" fill="none" xmlns="http://www.w3.org/2000/svg">
<path opacity="0.3" d="M15.14 0.575997C18.836 0.575997 21.7667 1.22933 23.932 2.536C26.1347 3.84267 27.7027 5.97067 28.636 8.92C29.6067 11.832 30.092 15.752 30.092 20.68C30.092 25.608 29.6067 29.5467 28.636 32.496C27.7027 35.408 26.1347 37.5173 23.932 38.824C21.7667 40.1307 18.836 40.784 15.14 40.784C11.444 40.784 8.49467 40.1307 6.292 38.824C4.12667 37.5173 2.57733 35.408 1.644 32.496C0.710667 29.5467 0.244 25.608 0.244 20.68C0.244 15.752 0.710667 11.832 1.644 8.92C2.57733 5.97067 4.12667 3.84267 6.292 2.536C8.49467 1.22933 11.444 0.575997 15.14 0.575997ZM15.084 7.296C13.852 7.296 12.8253 7.50133 12.004 7.912C11.1827 8.32267 10.5293 9.01333 10.044 9.984C9.55867 10.9547 9.204 12.3173 8.98 14.072C8.79333 15.7893 8.7 17.992 8.7 20.68C8.7 23.3307 8.79333 25.5333 8.98 27.288C9.204 29.0427 9.55867 30.4053 10.044 31.376C10.5293 32.3467 11.1827 33.0373 12.004 33.448C12.8253 33.8587 13.852 34.064 15.084 34.064C16.3533 34.064 17.3987 33.8587 18.22 33.448C19.0787 33.0373 19.7507 32.3467 20.236 31.376C20.7587 30.4053 21.1133 29.0427 21.3 27.288C21.524 25.5333 21.636 23.3307 21.636 20.68C21.636 17.992 21.524 15.7893 21.3 14.072C21.1133 12.3173 20.7587 10.9547 20.236 9.984C19.7507 9.01333 19.0787 8.32267 18.22 7.912C17.3987 7.50133 16.3533 7.296 15.084 7.296ZM51.8681 1.36V40H43.3561V12.616C43.3561 11.9067 43.3748 11.216 43.4121 10.544C43.4495 9.83467 43.5428 9.12533 43.6921 8.416L34.5081 10.768L33.5001 5.224L43.3561 1.36H51.8681Z" fill="#2F80ED"/>
</svg>
