<svg width="64" height="41" viewBox="0 0 64 41" fill="none" xmlns="http://www.w3.org/2000/svg">
<path opacity="0.3" d="M15.7728 0.575997C19.4688 0.575997 22.3995 1.22933 24.5648 2.536C26.7675 3.84267 28.3355 5.97067 29.2688 8.92C30.2395 11.832 30.7248 15.752 30.7248 20.68C30.7248 25.608 30.2395 29.5467 29.2688 32.496C28.3355 35.408 26.7675 37.5173 24.5648 38.824C22.3995 40.1307 19.4688 40.784 15.7728 40.784C12.0768 40.784 9.12748 40.1307 6.92481 38.824C4.75948 37.5173 3.21015 35.408 2.27681 32.496C1.34348 29.5467 0.876813 25.608 0.876813 20.68C0.876813 15.752 1.34348 11.832 2.27681 8.92C3.21015 5.97067 4.75948 3.84267 6.92481 2.536C9.12748 1.22933 12.0768 0.575997 15.7728 0.575997ZM15.7168 7.296C14.4848 7.296 13.4581 7.50133 12.6368 7.912C11.8155 8.32267 11.1621 9.01333 10.6768 9.984C10.1915 10.9547 9.83681 12.3173 9.61281 14.072C9.42615 15.7893 9.33281 17.992 9.33281 20.68C9.33281 23.3307 9.42615 25.5333 9.61281 27.288C9.83681 29.0427 10.1915 30.4053 10.6768 31.376C11.1621 32.3467 11.8155 33.0373 12.6368 33.448C13.4581 33.8587 14.4848 34.064 15.7168 34.064C16.9861 34.064 18.0315 33.8587 18.8528 33.448C19.7115 33.0373 20.3835 32.3467 20.8688 31.376C21.3915 30.4053 21.7461 29.0427 21.9328 27.288C22.1568 25.5333 22.2688 23.3307 22.2688 20.68C22.2688 17.992 22.1568 15.7893 21.9328 14.072C21.7461 12.3173 21.3915 10.9547 20.8688 9.984C20.3835 9.01333 19.7115 8.32267 18.8528 7.912C18.0315 7.50133 16.9861 7.296 15.7168 7.296ZM49.3649 0.687999C52.0529 0.687999 54.3676 0.930666 56.3089 1.416C58.2503 1.864 59.7623 2.74133 60.8449 4.048C61.9276 5.35466 62.4689 7.24 62.4689 9.704C62.4689 11.16 62.2823 12.5227 61.9089 13.792C61.5729 15.024 60.9383 16.312 60.0049 17.656C59.1089 19 57.8023 20.5867 56.0849 22.416L45.9489 32.888C46.8823 32.7387 47.8156 32.6453 48.7489 32.608C49.7196 32.5333 50.6903 32.496 51.6609 32.496H63.5889V40H35.9249V35.408C35.9249 34.736 36.0183 34.12 36.2049 33.56C36.3916 32.9627 36.6903 32.4213 37.1009 31.936L46.7329 21.632C49.0103 19.28 50.7463 17.1893 51.9409 15.36C53.1729 13.5307 53.7703 11.944 53.7329 10.6C53.6956 9.77866 53.4716 9.18133 53.0609 8.808C52.6876 8.43466 52.1089 8.192 51.3249 8.08C50.5409 7.968 49.5703 7.912 48.4129 7.912C47.1063 7.912 45.8743 7.93067 44.7169 7.968C43.5969 7.968 42.3836 8.00533 41.0769 8.08C39.8076 8.15466 38.3143 8.26667 36.5969 8.416L36.2609 2.032C38.0903 1.62133 39.7329 1.32267 41.1889 1.136C42.6823 0.949331 44.0823 0.83733 45.3889 0.799997C46.7329 0.725332 48.0583 0.687999 49.3649 0.687999Z" fill="#2F80ED"/>
</svg>
