<svg width="63" height="41" viewBox="0 0 63 41" fill="none" xmlns="http://www.w3.org/2000/svg">
<path opacity="0.3" d="M15.5384 0.575997C19.2344 0.575997 22.1651 1.22933 24.3304 2.536C26.5331 3.84267 28.1011 5.97067 29.0344 8.92C30.0051 11.832 30.4904 15.752 30.4904 20.68C30.4904 25.608 30.0051 29.5467 29.0344 32.496C28.1011 35.408 26.5331 37.5173 24.3304 38.824C22.1651 40.1307 19.2344 40.784 15.5384 40.784C11.8424 40.784 8.8931 40.1307 6.69044 38.824C4.5251 37.5173 2.97577 35.408 2.04244 32.496C1.1091 29.5467 0.642438 25.608 0.642438 20.68C0.642438 15.752 1.1091 11.832 2.04244 8.92C2.97577 5.97067 4.5251 3.84267 6.69044 2.536C8.8931 1.22933 11.8424 0.575997 15.5384 0.575997ZM15.4824 7.296C14.2504 7.296 13.2238 7.50133 12.4024 7.912C11.5811 8.32267 10.9278 9.01333 10.4424 9.984C9.9571 10.9547 9.60244 12.3173 9.37844 14.072C9.19177 15.7893 9.09844 17.992 9.09844 20.68C9.09844 23.3307 9.19177 25.5333 9.37844 27.288C9.60244 29.0427 9.9571 30.4053 10.4424 31.376C10.9278 32.3467 11.5811 33.0373 12.4024 33.448C13.2238 33.8587 14.2504 34.064 15.4824 34.064C16.7518 34.064 17.7971 33.8587 18.6184 33.448C19.4771 33.0373 20.1491 32.3467 20.6344 31.376C21.1571 30.4053 21.5118 29.0427 21.6984 27.288C21.9224 25.5333 22.0344 23.3307 22.0344 20.68C22.0344 17.992 21.9224 15.7893 21.6984 14.072C21.5118 12.3173 21.1571 10.9547 20.6344 9.984C20.1491 9.01333 19.4771 8.32267 18.6184 7.912C17.7971 7.50133 16.7518 7.296 15.4824 7.296ZM48.4586 0.575997C51.5199 0.575997 53.9652 0.855998 55.7946 1.416C57.6612 1.93867 59.0052 2.85333 59.8266 4.16C60.6852 5.46667 61.1146 7.27733 61.1146 9.592C61.1146 11.384 60.9466 12.9707 60.6106 14.352C60.2746 15.696 59.6772 16.7973 58.8186 17.656C57.9599 18.5147 56.7279 19.0747 55.1226 19.336V19.56C57.7732 19.9707 59.6026 20.9787 60.6106 22.584C61.6186 24.1893 62.1412 26.4107 62.1786 29.248C62.2159 31.936 61.8052 34.1387 60.9466 35.856C60.0879 37.536 58.6692 38.7867 56.6906 39.608C54.7492 40.392 52.1359 40.784 48.8506 40.784C46.6106 40.784 44.3519 40.672 42.0746 40.448C39.7972 40.2613 37.5946 40.0187 35.4666 39.72L35.8026 33.448C37.2959 33.56 38.6212 33.6533 39.7786 33.728C40.9732 33.7653 42.1119 33.8027 43.1946 33.84C44.2772 33.8773 45.3786 33.896 46.4986 33.896C48.3279 33.896 49.7652 33.7467 50.8106 33.448C51.8559 33.112 52.6026 32.5333 53.0506 31.712C53.4986 30.8533 53.7226 29.6587 53.7226 28.128C53.7226 26.9333 53.5546 25.944 53.2186 25.16C52.9199 24.3387 52.3412 23.7227 51.4826 23.312C50.6239 22.864 49.3732 22.6587 47.7306 22.696L40.3946 22.752V17.096H47.7306C48.9626 17.096 49.9332 16.9653 50.6426 16.704C51.3519 16.4053 51.8746 16.032 52.2106 15.584C52.5839 15.0987 52.8266 14.5387 52.9386 13.904C53.0506 13.2693 53.1066 12.5787 53.1066 11.832C53.0692 10.6 52.8639 9.66667 52.4906 9.032C52.1546 8.39733 51.5386 7.968 50.6426 7.744C49.7839 7.52 48.5706 7.408 47.0026 7.408C45.0612 7.408 43.1759 7.44533 41.3466 7.52C39.5546 7.55733 37.9679 7.59466 36.5866 7.632L36.1946 1.64C38.2852 1.26666 40.3386 1.00533 42.3546 0.855997C44.4079 0.66933 46.4426 0.575997 48.4586 0.575997Z" fill="#2F80ED"/>
</svg>
