<svg width="68" height="41" viewBox="0 0 68 41" fill="none" xmlns="http://www.w3.org/2000/svg">
<path opacity="0.3" d="M15.6556 0.575997C19.3516 0.575997 22.2823 1.22933 24.4476 2.536C26.6503 3.84267 28.2183 5.97067 29.1516 8.92C30.1223 11.832 30.6076 15.752 30.6076 20.68C30.6076 25.608 30.1223 29.5467 29.1516 32.496C28.2183 35.408 26.6503 37.5173 24.4476 38.824C22.2823 40.1307 19.3516 40.784 15.6556 40.784C11.9596 40.784 9.01029 40.1307 6.80763 38.824C4.64229 37.5173 3.09296 35.408 2.15963 32.496C1.22629 29.5467 0.759625 25.608 0.759625 20.68C0.759625 15.752 1.22629 11.832 2.15963 8.92C3.09296 5.97067 4.64229 3.84267 6.80763 2.536C9.01029 1.22933 11.9596 0.575997 15.6556 0.575997ZM15.5996 7.296C14.3676 7.296 13.341 7.50133 12.5196 7.912C11.6983 8.32267 11.045 9.01333 10.5596 9.984C10.0743 10.9547 9.71963 12.3173 9.49563 14.072C9.30896 15.7893 9.21563 17.992 9.21563 20.68C9.21563 23.3307 9.30896 25.5333 9.49563 27.288C9.71963 29.0427 10.0743 30.4053 10.5596 31.376C11.045 32.3467 11.6983 33.0373 12.5196 33.448C13.341 33.8587 14.3676 34.064 15.5996 34.064C16.869 34.064 17.9143 33.8587 18.7356 33.448C19.5943 33.0373 20.2663 32.3467 20.7516 31.376C21.2743 30.4053 21.629 29.0427 21.8156 27.288C22.0396 25.5333 22.1516 23.3307 22.1516 20.68C22.1516 17.992 22.0396 15.7893 21.8156 14.072C21.629 12.3173 21.2743 10.9547 20.7516 9.984C20.2663 9.01333 19.5943 8.32267 18.7356 7.912C17.9143 7.50133 16.869 7.296 15.5996 7.296ZM53.2798 1.36L43.9838 23.592C43.7224 24.1893 43.7224 24.656 43.9838 24.992C44.2451 25.2907 44.6371 25.44 45.1598 25.44H67.3358V30.536L62.5758 31.376H38.9998C37.9544 31.376 37.0584 31.096 36.3118 30.536C35.5651 29.9387 35.0611 29.192 34.7998 28.296C34.5758 27.3627 34.6691 26.4293 35.0798 25.496L45.2158 1.36H53.2798ZM62.6318 8.864V40H54.7358V15.024L56.1358 8.864H62.6318Z" fill="#2F80ED"/>
</svg>
