<svg width="62" height="41" viewBox="0 0 62 41" fill="none" xmlns="http://www.w3.org/2000/svg">
<path opacity="0.3" d="M15.4134 0.575997C19.1094 0.575997 22.0401 1.22933 24.2054 2.536C26.4081 3.84267 27.9761 5.97067 28.9094 8.92C29.8801 11.832 30.3654 15.752 30.3654 20.68C30.3654 25.608 29.8801 29.5467 28.9094 32.496C27.9761 35.408 26.4081 37.5173 24.2054 38.824C22.0401 40.1307 19.1094 40.784 15.4134 40.784C11.7174 40.784 8.7681 40.1307 6.56544 38.824C4.4001 37.5173 2.85077 35.408 1.91744 32.496C0.984104 29.5467 0.517438 25.608 0.517438 20.68C0.517438 15.752 0.984104 11.832 1.91744 8.92C2.85077 5.97067 4.4001 3.84267 6.56544 2.536C8.7681 1.22933 11.7174 0.575997 15.4134 0.575997ZM15.3574 7.296C14.1254 7.296 13.0988 7.50133 12.2774 7.912C11.4561 8.32267 10.8028 9.01333 10.3174 9.984C9.8321 10.9547 9.47744 12.3173 9.25344 14.072C9.06677 15.7893 8.97344 17.992 8.97344 20.68C8.97344 23.3307 9.06677 25.5333 9.25344 27.288C9.47744 29.0427 9.8321 30.4053 10.3174 31.376C10.8028 32.3467 11.4561 33.0373 12.2774 33.448C13.0988 33.8587 14.1254 34.064 15.3574 34.064C16.6268 34.064 17.6721 33.8587 18.4934 33.448C19.3521 33.0373 20.0241 32.3467 20.5094 31.376C21.0321 30.4053 21.3868 29.0427 21.5734 27.288C21.7974 25.5333 21.9094 23.3307 21.9094 20.68C21.9094 17.992 21.7974 15.7893 21.5734 14.072C21.3868 12.3173 21.0321 10.9547 20.5094 9.984C20.0241 9.01333 19.3521 8.32267 18.4934 7.912C17.6721 7.50133 16.6268 7.296 15.3574 7.296ZM60.5416 1.36L60.2616 7.8H44.1896L43.7416 15.08L49.3976 15.696C51.7496 15.92 53.7096 16.368 55.2776 17.04C56.8829 17.712 58.1522 18.5893 59.0856 19.672C60.0189 20.7547 60.6909 22.0053 61.1016 23.424C61.5122 24.8427 61.7176 26.4293 61.7176 28.184C61.7176 29.864 61.5122 31.4693 61.1016 33C60.6909 34.4933 59.9816 35.8187 58.9736 36.976C58.0029 38.1333 56.6402 39.048 54.8856 39.72C53.1309 40.3547 50.8909 40.672 48.1656 40.672C46.3736 40.672 44.3389 40.56 42.0616 40.336C39.8216 40.1493 37.5442 39.8693 35.2296 39.496L36.0136 32.944C37.8429 33.1307 39.6162 33.2987 41.3336 33.448C43.0882 33.56 44.6376 33.616 45.9816 33.616C47.9602 33.616 49.4536 33.4107 50.4616 33C51.4696 32.5893 52.1602 31.9733 52.5336 31.152C52.9442 30.2933 53.1869 29.2293 53.2616 27.96C53.2989 26.728 53.1496 25.7573 52.8136 25.048C52.5149 24.3013 51.9922 23.7227 51.2456 23.312C50.5362 22.9013 49.5842 22.6213 48.3896 22.472C47.2322 22.2853 45.7949 22.136 44.0776 22.024L39.2616 21.464C38.4776 21.352 37.8429 21.0347 37.3576 20.512C36.8722 19.952 36.6482 19.28 36.6856 18.496L37.6376 1.36H60.5416Z" fill="#2F80ED"/>
</svg>
