<svg width="64" height="41" viewBox="0 0 64 41" fill="none" xmlns="http://www.w3.org/2000/svg">
<path opacity="0.3" d="M15.2806 0.575997C18.9766 0.575997 21.9073 1.22933 24.0726 2.536C26.2753 3.84267 27.8433 5.97067 28.7766 8.92C29.7473 11.832 30.2326 15.752 30.2326 20.68C30.2326 25.608 29.7473 29.5467 28.7766 32.496C27.8433 35.408 26.2753 37.5173 24.0726 38.824C21.9073 40.1307 18.9766 40.784 15.2806 40.784C11.5846 40.784 8.63529 40.1307 6.43263 38.824C4.26729 37.5173 2.71796 35.408 1.78463 32.496C0.851292 29.5467 0.384625 25.608 0.384625 20.68C0.384625 15.752 0.851292 11.832 1.78463 8.92C2.71796 5.97067 4.26729 3.84267 6.43263 2.536C8.63529 1.22933 11.5846 0.575997 15.2806 0.575997ZM15.2246 7.296C13.9926 7.296 12.966 7.50133 12.1446 7.912C11.3233 8.32267 10.67 9.01333 10.1846 9.984C9.69929 10.9547 9.34463 12.3173 9.12063 14.072C8.93396 15.7893 8.84063 17.992 8.84063 20.68C8.84063 23.3307 8.93396 25.5333 9.12063 27.288C9.34463 29.0427 9.69929 30.4053 10.1846 31.376C10.67 32.3467 11.3233 33.0373 12.1446 33.448C12.966 33.8587 13.9926 34.064 15.2246 34.064C16.494 34.064 17.5393 33.8587 18.3606 33.448C19.2193 33.0373 19.8913 32.3467 20.3766 31.376C20.8993 30.4053 21.254 29.0427 21.4406 27.288C21.6646 25.5333 21.7766 23.3307 21.7766 20.68C21.7766 17.992 21.6646 15.7893 21.4406 14.072C21.254 12.3173 20.8993 10.9547 20.3766 9.984C19.8913 9.01333 19.2193 8.32267 18.3606 7.912C17.5393 7.50133 16.494 7.296 15.2246 7.296ZM52.0648 0.687999C52.9981 0.687999 54.3048 0.743998 55.9848 0.855997C57.6648 0.930665 59.4194 1.22933 61.2487 1.752L60.8008 7.128C59.8301 7.09067 58.9341 7.072 58.1128 7.072C57.2914 7.03466 56.4141 7.016 55.4808 7.016C54.5474 7.016 53.4088 7.016 52.0648 7.016C50.4221 7.016 49.0594 7.20266 47.9768 7.576C46.9314 7.912 46.1101 8.584 45.5128 9.592C44.9528 10.6 44.5608 12.0933 44.3368 14.072C44.1501 16.0133 44.0568 18.5707 44.0568 21.744C44.0568 24.32 44.1128 26.4293 44.2248 28.072C44.3368 29.7147 44.5794 31.0027 44.9528 31.936C45.3634 32.832 45.9794 33.4667 46.8008 33.84C47.6221 34.176 48.7608 34.344 50.2168 34.344C51.8968 34.344 53.1288 34.0827 53.9128 33.56C54.6968 33.0373 55.2008 32.2347 55.4248 31.152C55.6488 30.0693 55.7608 28.688 55.7608 27.008C55.7608 25.3653 55.6114 24.0773 55.3128 23.144C55.0141 22.2107 54.4541 21.5573 53.6328 21.184C52.8488 20.8107 51.7288 20.624 50.2728 20.624C49.2274 20.624 48.2568 20.7547 47.3607 21.016C46.5021 21.2773 45.5688 21.7253 44.5608 22.36C43.5901 22.9573 42.3768 23.816 40.9208 24.936L40.6968 21.688C41.9288 19.8213 43.1048 18.384 44.2248 17.376C45.3448 16.3307 46.5768 15.6213 47.9208 15.248C49.2648 14.8373 50.8701 14.632 52.7368 14.632C55.6114 14.632 57.8328 15.0427 59.4008 15.864C61.0061 16.6853 62.1261 17.992 62.7608 19.784C63.4328 21.5387 63.7688 23.8907 63.7688 26.84C63.7688 29.1173 63.5821 31.1333 63.2088 32.888C62.8728 34.6053 62.2008 36.0427 61.1928 37.2C60.2221 38.3573 58.8408 39.2347 57.0488 39.832C55.2941 40.392 52.9794 40.672 50.1048 40.672C47.3048 40.672 44.9714 40.3733 43.1048 39.776C41.2381 39.1787 39.7634 38.1707 38.6808 36.752C37.6354 35.296 36.8888 33.3173 36.4408 30.816C35.9928 28.2773 35.7688 25.104 35.7688 21.296C35.7688 16.816 36.1048 13.2133 36.7768 10.488C37.4488 7.76267 38.4568 5.69067 39.8008 4.272C41.1448 2.85333 42.8434 1.90133 44.8968 1.416C46.9501 0.930666 49.3394 0.687999 52.0648 0.687999Z" fill="#2F80ED"/>
</svg>
