<svg width="63" height="41" viewBox="0 0 63 41" fill="none" xmlns="http://www.w3.org/2000/svg">
<path opacity="0.3" d="M15.7259 0.575997C19.4219 0.575997 22.3526 1.22933 24.5179 2.536C26.7206 3.84267 28.2886 5.97067 29.2219 8.92C30.1926 11.832 30.6779 15.752 30.6779 20.68C30.6779 25.608 30.1926 29.5467 29.2219 32.496C28.2886 35.408 26.7206 37.5173 24.5179 38.824C22.3526 40.1307 19.4219 40.784 15.7259 40.784C12.0299 40.784 9.0806 40.1307 6.87794 38.824C4.7126 37.5173 3.16327 35.408 2.22994 32.496C1.2966 29.5467 0.829938 25.608 0.829938 20.68C0.829938 15.752 1.2966 11.832 2.22994 8.92C3.16327 5.97067 4.7126 3.84267 6.87794 2.536C9.0806 1.22933 12.0299 0.575997 15.7259 0.575997ZM15.6699 7.296C14.4379 7.296 13.4113 7.50133 12.5899 7.912C11.7686 8.32267 11.1153 9.01333 10.6299 9.984C10.1446 10.9547 9.78994 12.3173 9.56594 14.072C9.37927 15.7893 9.28594 17.992 9.28594 20.68C9.28594 23.3307 9.37927 25.5333 9.56594 27.288C9.78994 29.0427 10.1446 30.4053 10.6299 31.376C11.1153 32.3467 11.7686 33.0373 12.5899 33.448C13.4113 33.8587 14.4379 34.064 15.6699 34.064C16.9393 34.064 17.9846 33.8587 18.8059 33.448C19.6646 33.0373 20.3366 32.3467 20.8219 31.376C21.3446 30.4053 21.6993 29.0427 21.8859 27.288C22.1099 25.5333 22.2219 23.3307 22.2219 20.68C22.2219 17.992 22.1099 15.7893 21.8859 14.072C21.6993 12.3173 21.3446 10.9547 20.8219 9.984C20.3366 9.01333 19.6646 8.32267 18.8059 7.912C17.9846 7.50133 16.9393 7.296 15.6699 7.296ZM58.2221 1.36C59.1554 1.36 59.9207 1.56533 60.5181 1.976C61.1527 2.38666 61.5821 2.928 61.8061 3.6C62.0301 4.272 61.9927 5.03733 61.6941 5.896L49.8781 40H41.4781L51.3341 11.944C51.5581 11.3093 51.8007 10.6933 52.0621 10.096C52.3234 9.49867 52.6407 8.90133 53.0141 8.304H35.2621L34.8701 1.36H58.2221Z" fill="#2F80ED"/>
</svg>
