<svg width="66" height="41" viewBox="0 0 66 41" fill="none" xmlns="http://www.w3.org/2000/svg">
<path opacity="0.3" d="M15.4213 0.575997C19.1173 0.575997 22.0479 1.22933 24.2133 2.536C26.4159 3.84267 27.9839 5.97067 28.9173 8.92C29.8879 11.832 30.3733 15.752 30.3733 20.68C30.3733 25.608 29.8879 29.5467 28.9173 32.496C27.9839 35.408 26.4159 37.5173 24.2133 38.824C22.0479 40.1307 19.1173 40.784 15.4213 40.784C11.7253 40.784 8.77592 40.1307 6.57325 38.824C4.40792 37.5173 2.85858 35.408 1.92525 32.496C0.991917 29.5467 0.52525 25.608 0.52525 20.68C0.52525 15.752 0.991917 11.832 1.92525 8.92C2.85858 5.97067 4.40792 3.84267 6.57325 2.536C8.77592 1.22933 11.7253 0.575997 15.4213 0.575997ZM15.3653 7.296C14.1333 7.296 13.1066 7.50133 12.2853 7.912C11.4639 8.32267 10.8106 9.01333 10.3253 9.984C9.83992 10.9547 9.48525 12.3173 9.26125 14.072C9.07458 15.7893 8.98125 17.992 8.98125 20.68C8.98125 23.3307 9.07458 25.5333 9.26125 27.288C9.48525 29.0427 9.83992 30.4053 10.3253 31.376C10.8106 32.3467 11.4639 33.0373 12.2853 33.448C13.1066 33.8587 14.1333 34.064 15.3653 34.064C16.6346 34.064 17.6799 33.8587 18.5013 33.448C19.3599 33.0373 20.0319 32.3467 20.5173 31.376C21.0399 30.4053 21.3946 29.0427 21.5813 27.288C21.8053 25.5333 21.9173 23.3307 21.9173 20.68C21.9173 17.992 21.8053 15.7893 21.5813 14.072C21.3946 12.3173 21.0399 10.9547 20.5173 9.984C20.0319 9.01333 19.3599 8.32267 18.5013 7.912C17.6799 7.50133 16.6346 7.296 15.3653 7.296ZM50.5814 0.687999C53.3814 0.687999 55.6587 0.893332 57.4134 1.304C59.168 1.71467 60.5307 2.33067 61.5014 3.152C62.5094 3.97333 63.2 5.03733 63.5734 6.344C63.9467 7.65066 64.1334 9.2 64.1334 10.992C64.1334 12.4853 63.928 13.8853 63.5174 15.192C63.144 16.4613 62.528 17.5253 61.6694 18.384C60.848 19.2053 59.7467 19.6907 58.3654 19.84V20.064C60.1574 20.2133 61.5387 20.7733 62.5094 21.744C63.48 22.6773 64.152 23.8907 64.5254 25.384C64.8987 26.8773 65.0854 28.5387 65.0854 30.368C65.0854 32.832 64.6934 34.8293 63.9094 36.36C63.1254 37.8907 61.688 38.992 59.5974 39.664C57.5067 40.336 54.5014 40.672 50.5814 40.672C46.736 40.672 43.768 40.336 41.6774 39.664C39.5867 38.992 38.1307 37.8907 37.3094 36.36C36.488 34.8293 36.0774 32.832 36.0774 30.368C36.0774 28.5387 36.264 26.8773 36.6374 25.384C37.0107 23.8907 37.6827 22.6773 38.6534 21.744C39.624 20.7733 41.0054 20.2133 42.7974 20.064V19.84C41.416 19.6907 40.296 19.2053 39.4374 18.384C38.5787 17.5253 37.944 16.4613 37.5334 15.192C37.16 13.8853 36.9734 12.4853 36.9734 10.992C36.9734 9.2 37.16 7.65066 37.5334 6.344C37.944 5.03733 38.6347 3.97333 39.6054 3.152C40.6134 2.33067 41.9947 1.71467 43.7494 1.304C45.5414 0.893332 47.8187 0.687999 50.5814 0.687999ZM50.6934 22.808C49.3494 22.808 48.248 22.9013 47.3894 23.088C46.5307 23.2373 45.8587 23.536 45.3734 23.984C44.888 24.3947 44.552 24.992 44.3654 25.776C44.1787 26.5227 44.0854 27.512 44.0854 28.744C44.0854 30.1627 44.2534 31.2827 44.5894 32.104C44.9627 32.9253 45.616 33.504 46.5494 33.84C47.52 34.1387 48.8827 34.288 50.6374 34.288C52.3547 34.288 53.6614 34.1387 54.5574 33.84C55.4907 33.504 56.1254 32.9253 56.4614 32.104C56.7974 31.2827 56.9654 30.1627 56.9654 28.744C56.9654 27.512 56.872 26.5227 56.6854 25.776C56.4987 24.992 56.1814 24.3947 55.7334 23.984C55.2854 23.536 54.6507 23.2373 53.8294 23.088C53.008 22.9013 51.9627 22.808 50.6934 22.808ZM50.6374 6.624C49.032 6.624 47.8 6.77333 46.9414 7.072C46.12 7.37067 45.5414 7.912 45.2054 8.696C44.8694 9.48 44.7014 10.6 44.7014 12.056C44.7014 13.4373 44.8694 14.5013 45.2054 15.248C45.5414 15.9573 46.1387 16.4427 46.9974 16.704C47.8934 16.9653 49.144 17.096 50.7494 17.096C52.3547 17.096 53.568 16.9653 54.3894 16.704C55.2107 16.4053 55.752 15.9013 56.0134 15.192C56.312 14.4453 56.4614 13.4 56.4614 12.056C56.4614 10.6 56.312 9.48 56.0134 8.696C55.7147 7.912 55.136 7.37067 54.2774 7.072C53.456 6.77333 52.2427 6.624 50.6374 6.624Z" fill="#2F80ED"/>
</svg>
