<?xml version="1.0" encoding="UTF-8" standalone="no" ?>
<!DOCTYPE svg PUBLIC "-//W3C//DTD SVG 1.1//EN" "http://www.w3.org/Graphics/SVG/1.1/DTD/svg11.dtd">
<svg xmlns="http://www.w3.org/2000/svg" xmlns:xlink="http://www.w3.org/1999/xlink" version="1.1" width="500" height="500" viewBox="0 0 500 500" xml:space="preserve">
<desc>Created with Fabric.js 3.6.3</desc>
<defs>
</defs>
<g transform="matrix(0.20176951486113903 0 0 0.20176951486113903 231.97662344380674 175.71172761082602)"  >
<path style="stroke: none; stroke-width: 1; stroke-dasharray: none; stroke-linecap: butt; stroke-dashoffset: 0; stroke-linejoin: miter; stroke-miterlimit: 4; fill: rgb(47,128,237); fill-rule: nonzero; opacity: 1;"  transform=" translate(-636.75, -553.8500000000001)" d="M 636.9 79.2 h 4.1 l 17.6 7.6 c 11.7 5 19.4 8.4 23.2 9.9 c 3.8 1.6 16.6 6.7 38.4 15.3 c 21.8 8.6 33.1 13 33.9 13 c 0.7 0.1 6.5 2.1 17.4 6.1 c 10.9 4 19.2 7 25.1 8.9 c 5.9 1.9 14.3 4.5 25.4 7.8 c 11.1 3.3 18.1 5.4 21 6.3 c 2.9 0.9 6.6 1.9 11 3.1 c 4.4 1.2 10 2.7 16.9 4.4 c 6.9 1.7 15.7 3.8 26.3 6.3 c 10.7 2.4 21 4.6 31 6.5 c 10 1.9 16.5 3.1 19.4 3.7 c 2.9 0.5 12.2 2 27.9 4.4 c 15.7 2.4 25.5 3.9 29.5 4.4 c 4 0.5 13.7 1.8 29.2 3.9 c 15.5 2.1 30.5 4.3 30.7 4.3 c 10.4 1.7 37.7 6.2 37.8 6.3 l 0.2 0.1 c 0 0 -3.1 98.3 -5.6 139.4 c -2.5 41.1 -4.5 69.8 -6 86.1 c -1.5 16.4 -3.1 30.4 -5 42 c -1.9 11.7 -4.1 22.7 -6.6 33.1 c -2.5 10.4 -5.2 21 -8.2 31.6 s -5.5 19.9 -7.8 27.9 c -2.3 8 -5 16.6 -8.2 25.8 s -5 14.8 -5.6 16.7 c -0.6 1.9 -1.6 4.3 -2.8 7.3 c -1.3 3 -2.7 6.6 -4.4 11 c -1.7 4.3 -4.3 10.6 -7.8 18.8 c -3.6 8.2 -6.5 14.7 -8.8 19.6 c -2.3 4.9 -5.1 10.7 -8.5 17.5 c -3.3 6.8 -7.6 15 -12.9 24.5 c -5.2 9.6 -8.4 15.1 -9.4 16.7 c -1 1.6 -4.9 7.3 -11.4 17.1 c -6.6 9.8 -10.6 15.7 -11.9 17.5 c -1.4 1.8 -4.6 6.4 -9.7 13.8 c -5.1 7.4 -8.5 12.1 -10 14.1 c -1.6 2 -4 5.1 -7.2 9.4 c -3.2 4.3 -5.9 7.6 -7.8 9.9 c -2 2.3 -4.3 5.1 -6.9 8.4 c -2.6 3.2 -5.1 6.2 -7.5 8.9 s -4.3 5 -5.6 6.8 c -1.4 1.8 -3.3 4.2 -6 7 c -2.6 2.9 -5.1 5.7 -7.5 8.6 c -2.4 2.9 -5 5.8 -7.8 8.9 c -2.8 3 -5.2 5.7 -7.2 7.8 c -2 2.2 -6.2 6.3 -12.7 12.4 c -6.5 6.1 -14.1 13 -22.9 20.9 c -8.8 7.8 -16.5 14.5 -23.2 20.1 c -6.7 5.6 -11.1 9.1 -13.3 10.6 c -2.2 1.5 -7.3 5.2 -15.4 11.2 c -8 6 -13 9.7 -14.7 11 c -1.8 1.3 -6.2 4.5 -13.2 9.7 c -7 5.1 -11.6 8.4 -13.8 9.9 c -2.2 1.5 -4.7 3.2 -7.5 5.2 c -2.8 2 -6.7 4.7 -11.8 8.2 c -5 3.5 -8.8 6 -11.4 7.7 c -2.6 1.7 -5.1 3.1 -7.5 4.4 c -2.4 1.3 -6.8 3.6 -13.2 6.8 c -6.4 3.2 -10.6 5.4 -12.5 6.5 c -2 1.1 -4.2 2.3 -6.7 3.5 c -2.5 1.2 -5.1 2.6 -7.8 4.2 c -2.7 1.6 -4.7 2.7 -6 3.4 c -1.3 0.7 -4 1.9 -8.2 3.7 c -4.2 1.7 -9.2 3.7 -15.1 6 c -5.9 2.3 -9.9 3.7 -12.2 4.4 l -3.4 1 l -3.8 -0.8 c -2.5 -0.5 -5.2 -1.4 -8.2 -2.6 s -7.8 -3.3 -14.7 -6.3 c -6.9 -3 -10.9 -4.8 -11.9 -5.5 c -1 -0.7 -3.7 -2.2 -8 -4.6 c -4.3 -2.3 -7.5 -4.1 -9.7 -5.2 s -6.5 -3.3 -12.9 -6.5 c -6.4 -3.2 -10.8 -5.5 -13.2 -6.8 c -2.4 -1.3 -4.9 -2.8 -7.5 -4.4 c -2.6 -1.7 -5.6 -3.6 -8.9 -5.9 c -3.3 -2.3 -7.8 -5.3 -13.3 -9.3 c -5.5 -3.9 -10.3 -7.3 -14.4 -10.2 c -4.1 -2.9 -10 -7.2 -17.9 -13 c -7.8 -5.8 -12.9 -9.5 -15.1 -11 c -2.2 -1.5 -7 -5 -14.4 -10.4 c -7.4 -5.5 -11.6 -8.6 -12.4 -9.3 c -0.8 -0.7 -4.5 -3.8 -11.1 -9.3 s -11.2 -9.4 -13.8 -11.7 c -2.6 -2.3 -8.4 -7.6 -17.2 -15.7 c -8.9 -8.1 -14.2 -13 -16 -14.9 c -1.8 -1.8 -4.4 -4.5 -7.8 -8.1 c -3.4 -3.6 -6.2 -6.4 -8.2 -8.6 c -2 -2.2 -4 -4.4 -6 -6.8 c -2 -2.3 -4.1 -4.8 -6.3 -7.3 c -2.2 -2.5 -4.2 -4.8 -6 -6.8 c -1.8 -2 -3.3 -3.8 -4.5 -5.3 c -1.3 -1.6 -3 -3.6 -5.2 -6.1 s -4.1 -4.8 -5.6 -6.8 c -1.6 -2 -3.7 -4.6 -6.3 -7.8 c -2.6 -3.2 -4.6 -5.7 -6 -7.6 c -1.4 -1.8 -3.6 -4.7 -6.6 -8.6 c -3 -3.9 -5 -6.6 -6 -8.1 c -0.9 -1.5 -3.6 -5.2 -7.8 -11.2 c -4.3 -6 -7.1 -9.9 -8.5 -11.7 c -1.4 -1.8 -4.8 -6.8 -10.2 -15 c -5.4 -8.2 -9.5 -14.4 -12.2 -18.5 c -2.7 -4.2 -5.1 -8.1 -7.2 -11.7 c -2.1 -3.7 -5 -9.1 -8.8 -16.4 c -3.8 -7.3 -5.6 -11 -5.6 -11.2 c 0 -0.2 -1.9 -4.2 -5.6 -12 c -3.8 -7.8 -6.7 -14 -8.8 -18.5 c -2.1 -4.5 -5 -11.4 -8.8 -20.6 c -3.8 -9.2 -7.5 -19.1 -11.3 -29.5 c -3.8 -10.4 -7.9 -23.1 -12.5 -38.1 c -4.6 -15 -7.8 -26.1 -9.7 -33.4 c -1.9 -7.3 -4.5 -17.9 -7.8 -31.8 c -3.3 -13.9 -5.3 -23.1 -6 -27.4 c -0.6 -4.3 -2 -17.7 -4.1 -39.9 c -2.1 -22.3 -3.4 -39.1 -4.1 -50.4 c -0.6 -11.3 -1.4 -23.3 -2.2 -36 c -0.8 -12.7 -2 -33.5 -3.4 -62.4 c -1.5 -28.9 -2.2 -49.3 -2.2 -61.3 v -18 l 2 -0.9 c 1.4 -0.6 5.1 -1.3 11.1 -2.2 c 6.1 -0.9 14.4 -2 25.1 -3.4 c 10.7 -1.4 26.9 -3.7 48.6 -6.8 c 21.7 -3.1 37.3 -5.4 46.7 -6.8 c 9.4 -1.4 21.8 -3.6 37.3 -6.5 c 15.5 -3 28.9 -5.7 40.1 -8.4 c 11.3 -2.6 21 -5 29.2 -7.3 c 8.2 -2.3 14.5 -4 19.1 -5.2 c 4.6 -1.2 9 -2.4 13.2 -3.7 c 4.2 -1.2 12.5 -3.8 25.1 -7.8 c 12.5 -4 24.3 -8 35.3 -12.1 c 11 -4.1 16.8 -6.2 17.6 -6.3 c 0.7 -0.1 6 -2 15.8 -5.9 c 9.8 -3.8 18.7 -7.3 26.7 -10.4 c 7.9 -3.1 15.8 -6.3 23.5 -9.4 c 7.7 -3.1 17.4 -7.2 28.9 -12.3 l 17.2 -7.6 L 636.9 79.2 L 636.9 79.2 L 636.9 79.2 z" stroke-linecap="round" />
</g>
</svg>