<svg width="264" height="34" viewBox="0 0 264 34" fill="none" xmlns="http://www.w3.org/2000/svg">
<path d="M58.6941 23.3798H48.1384C45.9297 23.3798 44.2032 23.1342 42.9562 22.6428C41.712 22.1488 40.8217 21.3272 40.2937 20.1726C39.7629 19.018 39.4976 17.4158 39.4976 15.3714V8.93511C39.5261 6.72419 39.8143 5.03188 40.3793 3.85545C40.9358 2.67356 41.8575 1.85197 43.1502 1.38249C44.4487 0.910277 46.2921 0.675537 48.6835 0.675537H58.0064C60.0382 0.675537 61.719 0.8939 63.0431 1.32244C64.3757 1.75916 65.4059 2.548 66.1336 3.68621C66.8698 4.82443 67.2323 6.41302 67.2323 8.44925H61.3537C61.3537 7.26464 61.0227 6.41848 60.3578 5.92443C59.69 5.42766 58.5857 5.18473 57.0504 5.18473H49.7764C48.4324 5.18473 47.4478 5.27207 46.8229 5.44404C46.1951 5.61327 45.7642 5.97356 45.5245 6.51128C45.2848 7.05719 45.1649 7.93337 45.1649 9.1371V14.7545C45.1649 15.8818 45.319 16.747 45.6272 17.3421C45.9297 17.9344 46.4063 18.3384 47.0455 18.5485C47.6876 18.7614 48.5865 18.8706 49.7422 18.8706H57.0162C58.1491 18.8706 59.0194 18.7833 59.6301 18.614C60.2379 18.4448 60.6831 18.12 60.9656 17.6396C61.2453 17.1674 61.388 16.4632 61.388 15.5379H67.2665C67.2551 17.6178 67.0154 19.2145 66.5559 20.32C66.0879 21.4282 65.2518 22.2143 64.039 22.681C62.8262 23.1451 61.0455 23.3798 58.6941 23.3798ZM73.0223 23.4098H66.4018L78.9693 0.741046H87.3705L99.8353 23.4098H93.1777L90.13 17.6942H76.1014L73.0223 23.4098ZM78.3843 13.4143H87.8499L83.3354 4.9882H83.0672L78.3843 13.4143ZM107.035 5.25024V12.1751H118.886C120.076 12.1751 120.912 11.9076 121.392 11.3753C121.868 10.8403 122.114 9.95323 122.131 8.71129C122.131 7.46935 121.897 6.58225 121.432 6.04999C120.964 5.515 120.116 5.25024 118.886 5.25024H107.035ZM128.243 23.4098H122.539V19.8887C122.539 18.7614 122.194 17.9453 121.497 17.4376C120.81 16.9326 119.654 16.6815 118.039 16.6815H107.069V23.4098H101.368V0.741046H119.366C120.684 0.741046 121.851 0.861145 122.859 1.10134C123.86 1.34154 124.736 1.7537 125.478 2.34055C126.212 2.93013 126.785 3.74081 127.19 4.78622C127.601 5.83163 127.798 7.14454 127.798 8.71675C127.798 10.2862 127.493 11.5091 126.871 12.3962C126.252 13.2805 125.41 14.0257 124.351 14.6235C125.37 15.0001 126.103 15.2949 126.537 15.5051C126.974 15.7235 127.367 16.0838 127.718 16.5942C128.067 17.1128 128.243 17.8143 128.243 18.7068V23.4098ZM139.849 18.9034H150.054C151.449 18.9034 152.52 18.7724 153.264 18.5049C154.009 18.2456 154.523 17.8416 154.802 17.2929C155.079 16.7416 155.216 15.9964 155.216 15.0438V9.10434C155.216 7.74776 154.854 6.77332 154.118 6.16463C153.39 5.55322 152.034 5.25024 150.054 5.25024H139.849V18.9034ZM134.179 0.741046H152.48C153.955 0.741046 155.216 0.8939 156.264 1.19961C157.316 1.50259 158.181 1.98844 158.855 2.6408C159.531 3.30135 160.033 4.14478 160.361 5.18473C160.698 6.21922 160.869 7.49665 160.886 9.01154V15.0165C160.886 16.9927 160.612 18.5977 160.067 19.8287C159.52 21.0597 158.632 21.9632 157.402 22.5391C156.172 23.1232 154.546 23.4098 152.514 23.4098H134.179V0.741046ZM171.165 18.9034H181.37C182.765 18.9034 183.836 18.7724 184.58 18.5049C185.328 18.2456 185.839 17.8416 186.118 17.2929C186.395 16.7416 186.532 15.9964 186.532 15.0438V9.10434C186.532 7.74776 186.17 6.77332 185.434 6.16463C184.706 5.55322 183.35 5.25024 181.37 5.25024H171.165V18.9034ZM165.495 0.741046H183.796C185.271 0.741046 186.532 0.8939 187.58 1.19961C188.633 1.50259 189.5 1.98844 190.171 2.6408C190.847 3.30135 191.349 4.14478 191.677 5.18473C192.014 6.21922 192.185 7.49665 192.202 9.01154V15.0165C192.202 16.9927 191.929 18.5977 191.383 19.8287C190.836 21.0597 189.948 21.9632 188.718 22.5391C187.488 23.1232 185.862 23.4098 183.83 23.4098H165.495V0.741046ZM196.369 23.4098V0.741046H220.588V5.02096H202.039V9.98598H220V13.9383H202.039V19.1327H220.588V23.4098H196.369ZM231.543 0.741046H223.861L234.782 11.7547L222.528 23.4098H230.855L239.262 14.4597L247.669 23.4098H255.996L243.742 11.7547L254.663 0.741046H246.981L239.262 9.00608L231.543 0.741046Z" fill="#191E22"/>
<path d="M40.5787 30.5181C40.5815 30.7392 40.6129 30.9084 40.67 31.0258C40.7271 31.1459 40.8241 31.2305 40.9611 31.2769C41.098 31.3261 41.2978 31.3506 41.5546 31.3506H43.204C43.4751 31.3506 43.6806 31.3261 43.8176 31.2796C43.9517 31.2332 44.0459 31.1514 44.1001 31.034C44.1514 30.9166 44.1771 30.7447 44.1771 30.5126V29.2434C44.1771 28.9978 44.1457 28.8149 44.083 28.6866C44.0202 28.561 43.9203 28.4737 43.7805 28.4273C43.6406 28.3782 43.4409 28.3536 43.1812 28.3536H41.5774C41.3121 28.3536 41.1123 28.3782 40.9725 28.43C40.8326 28.4791 40.7328 28.5692 40.6757 28.6948C40.6186 28.8203 40.5872 29.0059 40.5787 29.2489V30.5181ZM45.4213 30.6409C45.4213 30.963 45.3928 31.2278 45.33 31.4407C45.2701 31.6509 45.1673 31.8228 45.0275 31.9566C44.8848 32.0876 44.6936 32.1859 44.4511 32.2459C44.2085 32.3087 43.9032 32.3387 43.5408 32.3387H41.255C40.9068 32.3387 40.6101 32.3087 40.3675 32.2432C40.1249 32.1804 39.928 32.0794 39.7739 31.9429C39.6227 31.8037 39.5114 31.629 39.4401 31.4189C39.3716 31.206 39.3345 30.9466 39.3345 30.6409V29.1288C39.3345 28.7821 39.3687 28.4983 39.4372 28.2744C39.5057 28.0479 39.6141 27.8705 39.7625 27.7367C39.9138 27.603 40.105 27.5074 40.3447 27.4501C40.5844 27.3928 40.8869 27.3628 41.255 27.3628H43.5408C43.9916 27.3628 44.3512 27.4146 44.6194 27.5156C44.8905 27.6193 45.0932 27.7995 45.2244 28.0561C45.3557 28.3126 45.4213 28.6702 45.4213 29.1288V30.6409ZM46.8767 27.3628H51.7593V28.3045H48.1209V29.3226H50.5294C50.946 29.3226 51.2827 29.3662 51.5339 29.4563C51.7878 29.5464 51.9733 29.7074 52.0932 29.9313C52.2159 30.1605 52.2758 30.4744 52.2758 30.8757C52.2758 31.2496 52.213 31.5417 52.0875 31.7573C51.9648 31.9702 51.7764 32.1203 51.5281 32.2077C51.277 32.295 50.946 32.3387 50.5351 32.3387H46.8767V27.3628ZM48.1209 30.2615V31.3997H50.2754C50.4951 31.3997 50.6606 31.3834 50.7662 31.3479C50.8718 31.3124 50.9431 31.2551 50.9774 31.1759C51.0145 31.0968 51.0316 30.9794 51.0316 30.8211C51.0316 30.6792 51.0145 30.57 50.9831 30.4935C50.9546 30.4171 50.8861 30.3598 50.7833 30.3189C50.6835 30.2806 50.5265 30.2615 50.3182 30.2615H48.1209ZM54.9896 30.5181C54.9925 30.7392 55.0239 30.9084 55.081 31.0258C55.138 31.1459 55.235 31.2305 55.372 31.2769C55.509 31.3261 55.7059 31.3506 55.9656 31.3506H57.615C57.8861 31.3506 58.0916 31.3261 58.2285 31.2796C58.3627 31.2332 58.4568 31.1514 58.5082 31.034C58.5624 30.9166 58.5881 30.7447 58.5881 30.5126V29.2434C58.5881 28.9978 58.5567 28.8149 58.4939 28.6866C58.4311 28.561 58.3284 28.4737 58.1886 28.4273C58.0516 28.3782 57.8519 28.3536 57.5922 28.3536H55.9884C55.723 28.3536 55.5233 28.3782 55.3834 28.43C55.2436 28.4791 55.1437 28.5692 55.0867 28.6948C55.0296 28.8203 54.9953 29.0059 54.9896 29.2489V30.5181ZM59.8323 30.6409C59.8323 30.963 59.8038 31.2278 59.741 31.4407C59.681 31.6509 59.5783 31.8228 59.4385 31.9566C59.2958 32.0876 59.1046 32.1859 58.8592 32.2459C58.6195 32.3087 58.3141 32.3387 57.9517 32.3387H55.666C55.315 32.3387 55.021 32.3087 54.7785 32.2432C54.5359 32.1804 54.339 32.0794 54.1849 31.9429C54.0337 31.8037 53.9195 31.629 53.851 31.4189C53.7797 31.206 53.7454 30.9466 53.7454 30.6409V29.1288C53.7454 28.7821 53.7797 28.4983 53.8482 28.2744C53.9167 28.0479 54.0251 27.8705 54.1735 27.7367C54.3219 27.603 54.5159 27.5074 54.7556 27.4501C54.9953 27.3928 55.2978 27.3628 55.666 27.3628H57.9517C58.3998 27.3628 58.7593 27.4146 59.0304 27.5156C59.3015 27.6193 59.5041 27.7995 59.6354 28.0561C59.7667 28.3126 59.8323 28.6702 59.8323 29.1288V30.6409ZM61.222 32.3387V27.3628H64.7691C65.103 27.3628 65.3855 27.3955 65.6109 27.461C65.8421 27.5238 66.0276 27.6248 66.1731 27.7613C66.3158 27.8978 66.4242 28.0752 66.4927 28.2963C66.5612 28.5146 66.5955 28.7849 66.5955 29.1069C66.5926 29.5273 66.5298 29.8658 66.4071 30.1251C66.2816 30.3844 66.0875 30.5727 65.8221 30.6928C65.5567 30.8102 65.2086 30.8702 64.7805 30.8702H62.4662V32.3387H61.222ZM62.4662 29.8794H64.5437C64.7491 29.8794 64.9089 29.8548 65.0288 29.8002C65.1487 29.7457 65.2314 29.6638 65.2799 29.5519C65.3284 29.4399 65.3513 29.2925 65.3513 29.1069C65.3513 28.8449 65.2942 28.6538 65.18 28.5337C65.0659 28.4136 64.8519 28.3536 64.5437 28.3536H62.4662V29.8794ZM72.3313 27.3628H73.8095L71.3867 31.105C71.1898 31.4025 71.0243 31.629 70.8988 31.7819C70.7704 31.9375 70.6448 32.0521 70.5192 32.134C70.3965 32.2159 70.2567 32.2705 70.1055 32.2978C69.9542 32.3251 69.7516 32.3387 69.4976 32.3387H69.0125V31.3997H69.2579C69.7373 31.3997 69.977 31.3015 69.977 31.0995C69.977 31.0394 69.9485 30.963 69.8886 30.8702L67.4829 27.3628H68.9497L70.6905 30.1687L72.3313 27.3628ZM75.1964 31.3506C75.4218 31.1404 75.5816 30.9112 75.6758 30.66C75.77 30.4089 75.8185 30.1032 75.8185 29.7457V27.3628H76.5576H79.7679H81.0207V31.3506H81.5971V33.5315H80.4642V32.3387H75.9811V33.5315H74.8425V31.3506H75.1964ZM79.7765 31.3506V28.3536H77.017V29.9886C77.017 30.2615 76.9828 30.5045 76.9171 30.7201C76.8486 30.9357 76.7402 31.1459 76.589 31.3506H79.7765ZM84.0941 30.5181C84.0969 30.7392 84.1255 30.9084 84.1825 31.0258C84.2396 31.1459 84.3395 31.2305 84.4736 31.2769C84.6134 31.3261 84.8103 31.3506 85.07 31.3506H86.7194C86.9905 31.3506 87.196 31.3261 87.3301 31.2796C87.4671 31.2332 87.5613 31.1514 87.6126 31.034C87.6669 30.9166 87.6925 30.7447 87.6925 30.5126V29.2434C87.6925 28.9978 87.6612 28.8149 87.5984 28.6866C87.5356 28.561 87.4329 28.4737 87.293 28.4273C87.1532 28.3782 86.9534 28.3536 86.6966 28.3536H85.09C84.8275 28.3536 84.6249 28.3782 84.485 28.43C84.3452 28.4791 84.2482 28.5692 84.1911 28.6948C84.1312 28.8203 84.0998 29.0059 84.0941 29.2489V30.5181ZM88.9367 30.6409C88.9367 30.963 88.9053 31.2278 88.8454 31.4407C88.7826 31.6509 88.6828 31.8228 88.5401 31.9566C88.4002 32.0876 88.2062 32.1859 87.9636 32.2459C87.7211 32.3087 87.4186 32.3387 87.0533 32.3387H84.7704C84.4194 32.3387 84.1255 32.3087 83.8801 32.2432C83.6375 32.1804 83.4406 32.0794 83.2893 31.9429C83.1353 31.8037 83.024 31.629 82.9555 31.4189C82.8841 31.206 82.8499 30.9466 82.8499 30.6409V29.1288C82.8499 28.7821 82.8841 28.4983 82.9526 28.2744C83.0211 28.0479 83.1295 27.8705 83.2779 27.7367C83.4263 27.603 83.6204 27.5074 83.8601 27.4501C84.0998 27.3928 84.4023 27.3628 84.7704 27.3628H87.0533C87.5042 27.3628 87.8638 27.4146 88.1349 27.5156C88.406 27.6193 88.6057 27.7995 88.7398 28.0561C88.8711 28.3126 88.9367 28.6702 88.9367 29.1288V30.6409ZM91.6135 28.3045V29.3799H94.1561C94.3187 29.3799 94.4471 29.3253 94.5385 29.2189C94.6326 29.1097 94.6783 28.9705 94.6783 28.7985C94.6783 28.6456 94.6326 28.5228 94.5413 28.4355C94.4471 28.3481 94.3159 28.3045 94.1475 28.3045H91.6135ZM90.3693 32.3387V27.3628H94.1161C94.5099 27.3628 94.841 27.4037 95.1035 27.4883C95.3689 27.5675 95.5686 27.7012 95.7056 27.8841C95.8426 28.0697 95.9082 28.3099 95.9082 28.6102C95.9082 28.9868 95.8597 29.2461 95.7627 29.3908C95.6628 29.5355 95.4973 29.6447 95.2633 29.7156C95.5572 29.8112 95.7741 29.9367 95.9082 30.095C96.0452 30.2561 96.1108 30.5154 96.1108 30.8784C96.1108 31.2278 96.048 31.5144 95.9253 31.7273C95.7998 31.9429 95.6086 32.0985 95.3518 32.194C95.0978 32.2923 94.7696 32.3387 94.373 32.3387H90.3693ZM91.6135 30.2615V31.3997H94.1104C94.3301 31.3997 94.4928 31.3834 94.6012 31.3479C94.7068 31.3124 94.7782 31.2551 94.8153 31.1732C94.8495 31.0913 94.8666 30.9739 94.8666 30.8211C94.8666 30.6792 94.8524 30.57 94.821 30.4935C94.7896 30.4171 94.724 30.3598 94.6212 30.3189C94.5213 30.2806 94.3644 30.2615 94.1532 30.2615H91.622H91.6135ZM98.6763 32.3387H97.2209L99.9804 27.3628H101.824L104.561 32.3387H103.099L102.432 31.0859H99.3526L98.6763 32.3387ZM99.852 30.1469H101.929L100.939 28.2963H100.879L99.852 30.1469ZM105.536 32.3387V27.3628H106.781V29.2707H109.988V27.3628H111.241V32.3387H109.988V30.2615H106.781V32.3387H105.536ZM119.397 32.3387V27.3628H117.305L114.135 31.3506H113.963V27.3628H112.719V32.3387H114.856L117.981 28.3536H118.152V32.3387H119.397ZM120.989 32.3387V27.3628H126.305V28.3045H122.233V29.3935H126.174V30.2615H122.233V31.3997H126.305V32.3387H120.989ZM145.131 32.3332H142.811C142.326 32.3332 141.949 32.2787 141.675 32.1722C141.401 32.063 141.207 31.8829 141.09 31.629C140.973 31.3752 140.916 31.0231 140.916 30.5754V29.1615C140.922 28.6784 140.985 28.3045 141.11 28.0479C141.233 27.7886 141.435 27.6084 141.718 27.5047C142.003 27.401 142.406 27.3491 142.931 27.3491H144.98C145.425 27.3491 145.793 27.3983 146.084 27.4911C146.375 27.5866 146.603 27.7613 146.763 28.0097C146.923 28.2608 147.003 28.6102 147.003 29.0551H145.713C145.713 28.7958 145.642 28.6102 145.493 28.501C145.348 28.3918 145.105 28.3399 144.769 28.3399H143.17C142.877 28.3399 142.66 28.359 142.523 28.3973C142.386 28.4327 142.292 28.5119 142.237 28.6293C142.186 28.7494 142.16 28.9432 142.16 29.2079V30.439C142.16 30.6873 142.195 30.8784 142.26 31.0067C142.326 31.1377 142.431 31.2251 142.571 31.2742C142.714 31.3206 142.911 31.3424 143.165 31.3424H144.76C145.008 31.3424 145.202 31.3233 145.334 31.2878C145.468 31.2496 145.565 31.1787 145.627 31.0722C145.69 30.9685 145.722 30.8156 145.722 30.6109H147.012C147.009 31.0695 146.957 31.4189 146.855 31.6618C146.752 31.9047 146.569 32.0767 146.304 32.1804C146.036 32.2814 145.645 32.3332 145.131 32.3332ZM155.144 32.3387V27.3628H153.053L149.882 31.3506H149.708V27.3628H148.464V32.3387H150.601L153.726 28.3536H153.9V32.3387H155.144ZM160.812 32.3332H158.495C158.009 32.3332 157.633 32.2787 157.359 32.1722C157.085 32.063 156.891 31.8829 156.774 31.629C156.657 31.3752 156.6 31.0231 156.6 30.5754V29.1615C156.605 28.6784 156.668 28.3045 156.794 28.0479C156.914 27.7886 157.116 27.6084 157.402 27.5047C157.687 27.401 158.089 27.3491 158.614 27.3491H160.663C161.109 27.3491 161.477 27.3983 161.768 27.4911C162.059 27.5866 162.287 27.7613 162.447 28.0097C162.607 28.2608 162.687 28.6102 162.687 29.0551H161.397C161.397 28.7958 161.325 28.6102 161.177 28.501C161.032 28.3918 160.789 28.3399 160.452 28.3399H158.854C158.56 28.3399 158.343 28.359 158.206 28.3973C158.069 28.4327 157.975 28.5119 157.921 28.6293C157.87 28.7494 157.844 28.9432 157.844 29.2079V30.439C157.844 30.6873 157.878 30.8784 157.944 31.0067C158.01 31.1377 158.115 31.2251 158.255 31.2742C158.398 31.3206 158.595 31.3424 158.848 31.3424H160.444C160.692 31.3424 160.883 31.3233 161.017 31.2878C161.151 31.2496 161.248 31.1787 161.311 31.0722C161.374 30.9685 161.405 30.8156 161.405 30.6109H162.695C162.692 31.0695 162.641 31.4189 162.538 31.6618C162.436 31.9047 162.253 32.0767 161.988 32.1804C161.719 32.2814 161.328 32.3332 160.812 32.3332ZM163.922 27.3628H169.535V28.3536H167.341V32.3387H166.097V28.3536H163.922V27.3628ZM170.768 32.3387V27.3628H176.085V28.3045H172.012V29.3935H175.956V30.2615H172.012V31.3997H176.085V32.3387H170.768ZM185.807 27.3628H183.493L181.769 31.3506H181.692L179.966 27.3628H177.651V32.3387H178.895V28.3536H179.061L180.844 32.3387H182.614L184.397 28.3536H184.563V32.3387H185.807V27.3628ZM187.351 27.3628V32.3387H190.898C191.223 32.3387 191.497 32.3169 191.723 32.2705C191.948 32.2213 192.136 32.1422 192.282 32.0275C192.43 31.9156 192.542 31.7573 192.616 31.5553C192.69 31.3533 192.727 31.0968 192.727 30.7829C192.727 30.3707 192.659 30.0514 192.522 29.8248C192.387 29.5955 192.185 29.4372 191.917 29.3526C191.648 29.2653 191.3 29.2216 190.867 29.2216H188.595V27.3628H187.351ZM188.598 30.2097H190.644C190.929 30.2097 191.14 30.2479 191.277 30.327C191.414 30.4035 191.483 30.5563 191.483 30.7829C191.483 31.0067 191.417 31.1568 191.286 31.2332C191.155 31.3124 190.952 31.3506 190.672 31.3506H188.598V30.2097ZM195.224 32.3387H193.98V27.3628H195.224V32.3387ZM199.439 32.3387V27.3628H200.675V29.2216H201.408L203.679 27.3628H205.546L202.481 29.6965L205.668 32.3387H203.839L201.434 30.2097H200.675V32.3387H199.439ZM208.051 30.5181C208.054 30.7392 208.085 30.9084 208.143 31.0258C208.2 31.1459 208.297 31.2305 208.434 31.2769C208.571 31.3261 208.77 31.3506 209.027 31.3506H210.677C210.948 31.3506 211.153 31.3261 211.29 31.2796C211.424 31.2332 211.518 31.1514 211.573 31.034C211.624 30.9166 211.65 30.7447 211.65 30.5126V29.2434C211.65 28.9978 211.618 28.8149 211.556 28.6866C211.493 28.561 211.393 28.4737 211.253 28.4273C211.113 28.3782 210.913 28.3536 210.654 28.3536H209.05C208.785 28.3536 208.585 28.3782 208.445 28.43C208.305 28.4791 208.205 28.5692 208.148 28.6948C208.091 28.8203 208.06 29.0059 208.051 29.2489V30.5181ZM212.894 30.6409C212.894 30.963 212.865 31.2278 212.803 31.4407C212.743 31.6509 212.64 31.8228 212.5 31.9566C212.357 32.0876 212.166 32.1859 211.924 32.2459C211.681 32.3087 211.376 32.3387 211.013 32.3387H208.728C208.379 32.3387 208.083 32.3087 207.84 32.2432C207.597 32.1804 207.401 32.0794 207.246 31.9429C207.095 31.8037 206.984 31.629 206.913 31.4189C206.844 31.206 206.807 30.9466 206.807 30.6409V29.1288C206.807 28.7821 206.841 28.4983 206.91 28.2744C206.978 28.0479 207.087 27.8705 207.235 27.7367C207.386 27.603 207.578 27.5074 207.82 27.4501C208.057 27.3928 208.359 27.3628 208.728 27.3628H211.013C211.464 27.3628 211.824 27.4146 212.092 27.5156C212.363 27.6193 212.566 27.7995 212.697 28.0561C212.828 28.3126 212.894 28.6702 212.894 29.1288V30.6409ZM214.261 32.3387V27.3628H215.505V29.2707H218.712V27.3628H219.965V32.3387H218.712V30.2615H215.505V32.3387H214.261ZM221.218 27.3628H226.831V28.3536H224.637V32.3387H223.392V28.3536H221.218V27.3628ZM227.975 32.3387V27.3628H231.52C231.856 27.3628 232.139 27.3955 232.364 27.461C232.596 27.5238 232.781 27.6248 232.927 27.7613C233.069 27.8978 233.178 28.0752 233.246 28.2963C233.315 28.5146 233.349 28.7849 233.349 29.1069C233.346 29.5273 233.283 29.8658 233.158 30.1251C233.035 30.3844 232.841 30.5727 232.576 30.6928C232.31 30.8102 231.962 30.8702 231.534 30.8702H229.22V32.3387H227.975ZM229.22 29.8794H231.297C231.503 29.8794 231.662 29.8548 231.782 29.8002C231.902 29.7457 231.985 29.6638 232.033 29.5519C232.082 29.4399 232.105 29.2925 232.105 29.1069C232.105 28.8449 232.048 28.6538 231.931 28.5337C231.819 28.4136 231.605 28.3536 231.297 28.3536H229.22V29.8794ZM235.823 30.5181C235.826 30.7392 235.857 30.9084 235.914 31.0258C235.971 31.1459 236.068 31.2305 236.205 31.2769C236.342 31.3261 236.542 31.3506 236.799 31.3506H238.448C238.719 31.3506 238.925 31.3261 239.062 31.2796C239.196 31.2332 239.29 31.1514 239.344 31.034C239.396 30.9166 239.421 30.7447 239.421 30.5126V29.2434C239.421 28.9978 239.39 28.8149 239.327 28.6866C239.265 28.561 239.165 28.4737 239.025 28.4273C238.885 28.3782 238.685 28.3536 238.426 28.3536H236.822C236.556 28.3536 236.357 28.3782 236.217 28.43C236.077 28.4791 235.977 28.5692 235.92 28.6948C235.863 28.8203 235.832 29.0059 235.823 29.2489V30.5181ZM240.666 30.6409C240.666 30.963 240.637 31.2278 240.574 31.4407C240.514 31.6509 240.412 31.8228 240.272 31.9566C240.129 32.0876 239.938 32.1859 239.695 32.2459C239.453 32.3087 239.148 32.3387 238.785 32.3387H236.499C236.151 32.3387 235.854 32.3087 235.612 32.2432C235.369 32.1804 235.172 32.0794 235.018 31.9429C234.867 31.8037 234.756 31.629 234.684 31.4189C234.616 31.206 234.579 30.9466 234.579 30.6409V29.1288C234.579 28.7821 234.613 28.4983 234.682 28.2744C234.75 28.0479 234.858 27.8705 235.007 27.7367C235.158 27.603 235.349 27.5074 235.592 27.4501C235.829 27.3928 236.131 27.3628 236.499 27.3628H238.785C239.236 27.3628 239.596 27.4146 239.864 27.5156C240.135 27.6193 240.337 27.7995 240.469 28.0561C240.6 28.3126 240.666 28.6702 240.666 29.1288V30.6409ZM247.94 27.3628V32.3387H246.695V28.3536H243.77V30.5345C243.77 31.7382 243.28 32.3387 242.292 32.3387H241.77V31.3506C241.984 31.3506 242.147 31.3206 242.252 31.2633C242.358 31.206 242.432 31.1104 242.469 30.9794C242.509 30.8457 242.526 30.6519 242.526 30.398V27.3628H243.479H246.687H247.94ZM254.021 28.3045V29.8221H251.458C251.199 29.8221 251.01 29.7648 250.89 29.6419C250.773 29.5218 250.711 29.3308 250.708 29.0633C250.708 28.793 250.759 28.5992 250.862 28.4791C250.965 28.3618 251.15 28.3045 251.421 28.3045H254.021ZM255.265 27.3628H251.316C250.927 27.3628 250.596 27.4146 250.328 27.5156C250.057 27.6139 249.846 27.794 249.692 28.0533C249.541 28.3126 249.464 28.6675 249.464 29.1151C249.464 29.3608 249.518 29.5873 249.626 29.8002C249.732 30.0131 249.874 30.1878 250.048 30.3298C250.223 30.469 250.411 30.5618 250.611 30.6055L249.09 32.3387H250.708L251.955 30.7638H254.021V32.3387H255.265V27.3628ZM135.945 31.8801C135.885 31.9566 135.748 32.0521 135.534 32.1667C135.32 32.2814 135.012 32.3387 134.61 32.3387H132.135C131.602 32.3387 131.162 32.194 130.82 31.9047C130.477 31.6127 130.306 31.1841 130.306 30.6191C130.306 30.3325 130.363 30.095 130.48 29.9067C130.594 29.7211 130.729 29.5819 130.883 29.4836C131.034 29.3881 131.171 29.3226 131.294 29.2871C131.413 29.2516 131.496 29.227 131.539 29.2134C131.539 29.2189 131.508 29.197 131.442 29.1479C131.379 29.0988 131.322 29.0251 131.274 28.9268C131.225 28.8285 131.199 28.6948 131.199 28.5255C131.199 28.2253 131.265 27.9878 131.396 27.8186C131.528 27.6494 131.71 27.532 131.941 27.4665C132.172 27.4037 132.452 27.371 132.78 27.371H134.595C135.097 27.371 135.48 27.461 135.745 27.6439C136.008 27.8241 136.176 28.0179 136.25 28.228C136.325 28.4355 136.362 28.6156 136.362 28.7685L136.356 28.804H135.112C135.112 28.6757 135.052 28.5692 134.935 28.4873C134.815 28.4027 134.632 28.3618 134.384 28.3618H133.057C132.84 28.3618 132.686 28.3809 132.598 28.4218C132.509 28.46 132.466 28.5474 132.466 28.6839C132.466 28.8012 132.521 28.8995 132.629 28.9841C132.738 29.066 132.829 29.1233 132.903 29.1561L135.48 30.5454C135.494 30.5318 135.514 30.4553 135.543 30.3189C135.568 30.1851 135.588 29.9449 135.6 29.601H136.844C136.844 30.0623 136.804 30.4089 136.724 30.6437C136.647 30.8784 136.581 31.0258 136.527 31.0913L137.323 31.5362L136.784 32.3251L135.945 31.8801ZM132.287 29.9012C132.167 29.9012 132.018 29.9476 131.836 30.0404C131.656 30.1305 131.568 30.3243 131.568 30.6191C131.568 30.8457 131.639 31.0203 131.782 31.1486C131.924 31.2742 132.19 31.337 132.572 31.337L133.845 31.3424C134.161 31.3424 134.384 31.3261 134.512 31.2933C134.638 31.2578 134.712 31.2278 134.729 31.206L132.287 29.9012Z" fill="#191E22"/>
<path d="M258.758 6.05447V2.07544H260.601C260.972 2.07544 261.255 2.11092 261.446 2.18187C261.64 2.25283 261.794 2.3811 261.908 2.56122C262.022 2.74134 262.079 2.94057 262.079 3.15889C262.079 3.44272 261.985 3.68015 261.794 3.87392C261.603 4.06768 261.309 4.19049 260.909 4.24235C261.058 4.30785 261.166 4.37607 261.243 4.44157C261.403 4.58076 261.554 4.75815 261.697 4.97102L262.416 6.05447H261.728L261.181 5.22482C261.021 4.98466 260.887 4.80181 260.784 4.67627C260.678 4.55074 260.587 4.46068 260.504 4.41155C260.421 4.3597 260.339 4.32422 260.253 4.30512C260.19 4.2942 260.09 4.28601 259.948 4.28601H259.311V6.05447H258.758ZM259.311 3.83025H260.493C260.744 3.83025 260.938 3.80569 261.081 3.75657C261.22 3.70744 261.329 3.6283 261.4 3.51641C261.474 3.40724 261.512 3.28989 261.512 3.16162C261.512 2.97331 261.44 2.81776 261.298 2.69495C261.158 2.57487 260.932 2.51483 260.624 2.51483H259.311V3.83025Z" fill="#191E22"/>
<path fill-rule="evenodd" clip-rule="evenodd" d="M257.334 4.21294C257.334 2.59433 258.707 1.28142 260.399 1.28142C262.094 1.28142 263.464 2.59433 263.464 4.21294C263.464 5.83155 262.094 7.14446 260.399 7.14446C258.707 7.14446 257.334 5.83155 257.334 4.21294ZM263.997 4.21294C263.997 2.31318 262.388 0.770996 260.399 0.770996C258.413 0.770996 256.8 2.31318 256.8 4.21294C256.8 6.11543 258.413 7.65488 260.399 7.65488C262.388 7.65488 263.997 6.11543 263.997 4.21294Z" fill="#191E22"/>
<path fill-rule="evenodd" clip-rule="evenodd" d="M3.48717 0.427734H31.3988C33.3164 0.427734 34.886 1.92898 34.886 3.76323V30.4608C34.886 32.2978 33.3164 33.799 31.3988 33.799H3.48717C1.56951 33.799 0 32.2978 0 30.4608V3.76323C0 1.92898 1.56951 0.427734 3.48717 0.427734Z" fill="#AD272F" fill-opacity="0.968627"/>
<path fill-rule="evenodd" clip-rule="evenodd" d="M32.1054 13.5452C28.1588 13.5588 25.6819 13.5561 24.9371 13.5452C23.5473 13.5233 22.149 12.5407 22.1205 11.2141C22.1005 11.0968 22.1062 11.0422 22.1062 10.9275C22.1148 6.45111 22.1091 3.83894 22.1091 3.09105C22.1091 2.49874 22.6598 2.22033 23.2505 2.1903C23.8612 2.16301 24.5176 2.4032 24.5176 3.06921C24.5176 6.61215 24.5176 8.68114 24.5176 9.28163C24.5176 10.2288 25.1596 10.9603 26.07 11.1022C26.1784 11.1186 26.2669 11.1213 26.3753 11.1213H32.191C32.8588 11.1295 33.1613 11.7055 33.1613 12.2978C33.1613 12.9092 32.8331 13.537 32.1054 13.5452Z" fill="white"/>
<path fill-rule="evenodd" clip-rule="evenodd" d="M27.7426 9.54087C27.7312 9.54087 27.7112 9.53814 27.6855 9.53268C26.5555 9.43715 25.8364 8.63739 25.8706 7.39272V7.29173L25.8735 6.45649L25.8706 6.36096C25.8735 5.21729 25.8735 4.50215 25.8735 4.04904V4.02994V3.99172V3.98899V3.98354C25.8735 3.87981 25.862 3.76244 25.8763 3.66418C25.8792 3.27113 25.882 3.22745 25.8877 3.14284C25.9505 1.96368 28.202 1.77534 28.242 3.31207C28.2848 4.8488 28.2705 5.65674 28.2705 5.65674C28.2705 5.65674 28.2791 5.78503 28.2791 5.91878C28.2734 6.25997 28.3447 6.86592 29.0581 7.18801C29.3549 7.32176 29.8115 7.29719 30.3423 7.30265C30.6762 7.30538 31.2155 7.29992 31.7206 7.29992C31.9917 7.29992 32.3199 7.27535 32.5567 7.38454C32.9106 7.54831 33.1332 7.90588 33.1674 8.24434C33.2416 8.94856 32.882 9.5436 32.2 9.5436L31.7178 9.54633C30.3879 9.54633 29.1009 9.54633 27.7826 9.5436C27.7683 9.5436 27.7569 9.54087 27.7426 9.54087Z" fill="white"/>
<path fill-rule="evenodd" clip-rule="evenodd" d="M19.7052 17.1234C19.3599 16.9296 19.0146 16.6594 18.7178 16.2909C18.1014 15.5758 17.7447 14.6641 17.7476 13.6951L17.7761 3.11272C17.7704 2.47128 18.5209 2.19833 19.0916 2.19287C19.9106 2.20652 20.4243 2.56955 20.4243 3.18642C20.4243 7.96857 20.4243 10.9192 20.4243 12.0438C20.4243 13.6078 21.6029 15.1609 23.1981 15.1582C28.874 15.18 31.7134 15.109 32.2413 15.1882C32.7036 15.2455 32.989 15.5976 33.0974 16.0262C33.1431 16.1517 33.1659 16.2991 33.1602 16.4765C33.1545 16.613 33.1402 16.7358 33.1088 16.845C32.9975 17.35 32.6608 17.7731 32.1186 17.7758L22.0908 17.7703C21.1862 17.7703 20.3758 17.5301 19.7052 17.1234Z" fill="white"/>
<path fill-rule="evenodd" clip-rule="evenodd" d="M2.69314 20.7546C6.63974 20.741 9.11672 20.7437 9.86152 20.7546C11.2541 20.7764 12.6495 21.7591 12.6781 23.0856C12.6981 23.2003 12.6924 23.2576 12.6924 23.3722C12.6838 27.8487 12.6895 30.4608 12.6895 31.2087C12.6895 31.801 12.1416 32.0794 11.548 32.1095C10.9374 32.1368 10.281 31.8966 10.281 31.2278C10.281 27.6876 10.281 25.6186 10.281 25.0181C10.281 24.0683 9.63894 23.3395 8.72862 23.1975C8.62018 23.1812 8.53172 23.1784 8.42328 23.1784H2.60753C1.93977 23.1702 1.64014 22.5943 1.64014 22.002C1.64014 21.3906 1.96545 20.7628 2.69314 20.7546Z" fill="white"/>
<path fill-rule="evenodd" clip-rule="evenodd" d="M7.05695 24.7589C7.06836 24.7589 7.08834 24.7616 7.11402 24.7671C8.24407 24.8599 8.96319 25.6624 8.92895 26.907V27.008L8.9261 27.8433L8.92895 27.9388C8.92895 29.0825 8.9261 29.7976 8.9261 30.2507V30.2671V30.308V30.3162C8.9261 30.4172 8.93751 30.5373 8.92324 30.6356C8.92039 31.0286 8.91753 31.0723 8.91468 31.1569C8.84905 32.3361 6.59751 32.5244 6.55756 30.9877C6.51475 29.4509 6.52902 28.643 6.52902 28.643C6.52902 28.643 6.52046 28.5147 6.52332 28.381C6.52617 28.0398 6.45768 27.4338 5.74427 27.1117C5.44463 26.978 4.98805 27.0026 4.45727 26.9971C4.12624 26.9944 3.58405 26.9998 3.07895 26.9998C2.80785 26.9998 2.48254 27.0244 2.24283 26.9152C1.88898 26.7514 1.66925 26.3939 1.63215 26.0554C1.55795 25.3512 1.91751 24.7561 2.59954 24.7534H3.08181C4.41161 24.7534 5.70146 24.7534 7.017 24.7561C7.03127 24.7561 7.04268 24.7589 7.05695 24.7589Z" fill="white"/>
<path fill-rule="evenodd" clip-rule="evenodd" d="M15.0961 17.176C15.4414 17.3698 15.7867 17.6401 16.0834 18.0085C16.7027 18.7237 17.0565 19.6354 17.0537 20.6043L17.028 31.1867C17.0308 31.8282 16.2803 32.1011 15.7096 32.1066C14.8906 32.093 14.3798 31.7299 14.3798 31.1131C14.3798 26.3309 14.3798 23.3803 14.3798 22.2557C14.3798 20.6917 13.1984 19.1386 11.6032 19.1413C5.92727 19.1195 3.08788 19.1904 2.56281 19.1113C2.09766 19.054 1.81515 18.7019 1.70386 18.2733C1.66105 18.1478 1.63822 17.9976 1.64393 17.8229C1.64678 17.6865 1.66391 17.5636 1.69244 17.4545C1.80374 16.9495 2.14047 16.5264 2.68266 16.5237L12.7104 16.5291C13.615 16.5291 14.4255 16.7693 15.0961 17.176Z" fill="white"/>
</svg>
