<svg width="189" height="192" viewBox="0 0 189 192" fill="none" xmlns="http://www.w3.org/2000/svg">
<mask id="path-1-inside-1_24_7694" fill="white">
<path d="M94.0851 0H94.9124L98.4635 1.53345C100.824 2.5423 102.378 3.22831 103.145 3.53097C103.911 3.8538 106.494 4.88282 110.893 6.61804C115.291 8.35326 117.571 9.24104 117.733 9.24104C117.874 9.26122 119.044 9.66476 121.243 10.4718C123.443 11.2789 125.117 11.8842 126.308 12.2676C127.498 12.6509 129.193 13.1756 131.433 13.8414C133.672 14.5072 135.085 14.9309 135.67 15.1125C136.255 15.2941 137.002 15.4959 137.889 15.738C138.777 15.9801 139.907 16.2828 141.299 16.6258C142.691 16.9688 144.467 17.3925 146.606 17.897C148.765 18.3812 150.843 18.8251 152.861 19.2085C154.878 19.5918 156.19 19.8339 156.775 19.955C157.36 20.0559 159.237 20.3585 162.404 20.8428C165.572 21.327 167.549 21.6297 168.356 21.7306C169.164 21.8315 171.121 22.0938 174.248 22.5175C177.376 22.9412 180.402 23.3851 180.442 23.3851C182.541 23.7281 188.049 24.6361 188.069 24.6562L188.11 24.6764C188.11 24.6764 187.484 44.5104 186.98 52.8031C186.475 61.0958 186.072 66.8866 185.769 70.1754C185.467 73.4845 185.144 76.3092 184.76 78.6498C184.377 81.0105 183.933 83.2299 183.429 85.3283C182.924 87.4267 182.379 89.5655 181.774 91.7042C181.169 93.843 180.664 95.7195 180.2 97.3336C179.736 98.9478 179.192 100.683 178.546 102.539C177.9 104.396 177.537 105.525 177.416 105.909C177.295 106.292 177.093 106.776 176.851 107.382C176.589 107.987 176.306 108.713 175.963 109.601C175.62 110.469 175.096 111.74 174.389 113.394C173.663 115.049 173.078 116.36 172.614 117.349C172.15 118.338 171.585 119.508 170.899 120.88C170.233 122.252 169.365 123.907 168.296 125.823C167.247 127.76 166.601 128.87 166.399 129.193C166.198 129.516 165.411 130.666 164.099 132.643C162.767 134.621 161.96 135.811 161.698 136.174C161.416 136.537 160.77 137.466 159.741 138.959C158.712 140.452 158.026 141.4 157.723 141.804C157.4 142.207 156.916 142.833 156.27 143.7C155.625 144.568 155.08 145.234 154.697 145.698C154.293 146.162 153.829 146.727 153.304 147.393C152.78 148.038 152.275 148.644 151.791 149.188C151.307 149.733 150.924 150.197 150.661 150.56C150.379 150.924 149.995 151.408 149.451 151.973C148.926 152.558 148.422 153.123 147.937 153.708C147.453 154.293 146.929 154.878 146.364 155.504C145.799 156.109 145.314 156.654 144.911 157.078C144.507 157.521 143.66 158.349 142.348 159.579C141.037 160.81 139.503 162.203 137.728 163.796C135.952 165.37 134.399 166.722 133.047 167.852C131.695 168.982 130.807 169.688 130.363 169.991C129.919 170.293 128.89 171.04 127.256 172.251C125.642 173.461 124.633 174.208 124.29 174.47C123.927 174.732 123.039 175.378 121.627 176.427C120.214 177.456 119.286 178.122 118.842 178.425C118.398 178.727 117.894 179.07 117.329 179.474C116.764 179.878 115.977 180.422 114.948 181.128C113.939 181.835 113.173 182.339 112.648 182.682C112.123 183.025 111.619 183.308 111.135 183.57C110.65 183.832 109.763 184.296 108.471 184.942C107.18 185.588 106.333 186.031 105.949 186.253C105.546 186.475 105.102 186.718 104.597 186.96C104.093 187.202 103.568 187.484 103.024 187.807C102.479 188.13 102.075 188.352 101.813 188.493C101.551 188.634 101.006 188.876 100.158 189.24C99.311 189.583 98.3021 189.986 97.1117 190.45C95.9212 190.914 95.1141 191.197 94.6501 191.338L93.9641 191.54L93.1973 191.378C92.6929 191.277 92.1481 191.096 91.5428 190.854C90.9375 190.612 89.969 190.188 88.5768 189.583C87.1846 188.977 86.3775 188.614 86.1758 188.473C85.974 188.332 85.4292 188.029 84.5616 187.545C83.694 187.081 83.0483 186.718 82.6044 186.496C82.1605 186.274 81.2929 185.83 80.0016 185.184C78.7103 184.538 77.8225 184.074 77.3383 183.812C76.854 183.55 76.3496 183.247 75.825 182.924C75.3004 182.581 74.6951 182.198 74.0292 181.734C73.3634 181.27 72.4554 180.664 71.3457 179.857C70.236 179.07 69.2675 178.384 68.4402 177.799C67.613 177.214 66.4225 176.347 64.8285 175.176C63.2547 174.006 62.2257 173.259 61.7818 172.957C61.3379 172.654 60.3694 171.948 58.8763 170.858C57.3832 169.749 56.5358 169.123 56.3744 168.982C56.213 168.841 55.4664 168.215 54.1348 167.106C52.8031 165.996 51.8749 165.209 51.3503 164.745C50.8257 164.281 49.6555 163.211 47.8799 161.577C46.0842 159.943 45.0148 158.954 44.6516 158.571C44.2884 158.207 43.7638 157.663 43.0778 156.936C42.3918 156.21 41.8268 155.645 41.4233 155.201C41.0197 154.757 40.6162 154.313 40.2127 153.829C39.8091 153.365 39.3854 152.861 38.9415 152.356C38.4976 151.852 38.0941 151.388 37.7309 150.984C37.3677 150.581 37.0651 150.217 36.8229 149.915C36.5606 149.592 36.2176 149.188 35.7737 148.684C35.3298 148.18 34.9465 147.715 34.6438 147.312C34.321 146.908 33.8973 146.384 33.3727 145.738C32.8481 145.092 32.4445 144.588 32.1621 144.205C31.8796 143.841 31.4357 143.256 30.8304 142.469C30.2251 141.683 29.8215 141.138 29.6198 140.835C29.4382 140.532 28.8934 139.786 28.046 138.575C27.1784 137.365 26.6134 136.578 26.3309 136.215C26.0484 135.851 25.3624 134.843 24.2729 133.188C23.1833 131.534 22.3561 130.283 21.8113 129.455C21.2665 128.608 20.7823 127.821 20.3585 127.095C19.9348 126.348 19.3497 125.259 18.583 123.786C17.8162 122.313 17.4531 121.566 17.4531 121.526C17.4531 121.485 17.0697 120.678 16.3232 119.105C15.5564 117.531 14.9713 116.28 14.5476 115.372C14.1239 114.464 13.5387 113.072 12.772 111.215C12.0053 109.359 11.2587 107.362 10.492 105.263C9.72529 103.165 8.89804 100.602 7.9699 97.5757C7.04176 94.5492 6.39609 92.3096 6.01273 90.8366C5.62937 89.3637 5.10477 87.225 4.43893 84.4204C3.77309 81.6158 3.36955 79.7595 3.22831 78.8919C3.10725 78.0243 2.82477 75.3206 2.40106 70.8413C1.97734 66.3418 1.71504 62.9521 1.5738 60.6721C1.45274 58.3921 1.29132 55.9709 1.12991 53.4084C0.968492 50.8459 0.72637 46.6491 0.443892 40.818C0.141238 34.9868 0 30.8707 0 28.4495V24.8176L0.403539 24.6361C0.686016 24.515 1.43256 24.3738 2.64318 24.1922C3.87397 24.0106 5.54866 23.7886 7.70759 23.5061C9.86653 23.2237 13.1352 22.7596 17.5136 22.1341C21.892 21.5086 25.0396 21.0446 26.9362 20.7621C28.8329 20.4796 31.3348 20.0357 34.4622 19.4506C37.5897 18.8453 40.2934 18.3005 42.5532 17.7557C44.8332 17.2311 46.7904 16.7469 48.4449 16.2828C50.0994 15.8187 51.3705 15.4757 52.2987 15.2336C53.2268 14.9915 54.1146 14.7494 54.962 14.4871C55.8094 14.2449 57.4841 13.7203 60.0264 12.9132C62.5486 12.1062 64.9294 11.2991 67.1489 10.4718C69.3684 9.64458 70.5386 9.22087 70.7 9.20069C70.8413 9.18051 71.9107 8.79715 73.888 8.01025C75.8653 7.24353 77.6611 6.53733 79.2752 5.91185C80.8692 5.28636 82.4632 4.6407 84.0168 4.01521C85.5704 3.38973 87.5276 2.56247 89.848 1.53345L93.3184 0H94.0851Z"/>
</mask>
<path d="M94.0851 0H94.9124L98.4635 1.53345C100.824 2.5423 102.378 3.22831 103.145 3.53097C103.911 3.8538 106.494 4.88282 110.893 6.61804C115.291 8.35326 117.571 9.24104 117.733 9.24104C117.874 9.26122 119.044 9.66476 121.243 10.4718C123.443 11.2789 125.117 11.8842 126.308 12.2676C127.498 12.6509 129.193 13.1756 131.433 13.8414C133.672 14.5072 135.085 14.9309 135.67 15.1125C136.255 15.2941 137.002 15.4959 137.889 15.738C138.777 15.9801 139.907 16.2828 141.299 16.6258C142.691 16.9688 144.467 17.3925 146.606 17.897C148.765 18.3812 150.843 18.8251 152.861 19.2085C154.878 19.5918 156.19 19.8339 156.775 19.955C157.36 20.0559 159.237 20.3585 162.404 20.8428C165.572 21.327 167.549 21.6297 168.356 21.7306C169.164 21.8315 171.121 22.0938 174.248 22.5175C177.376 22.9412 180.402 23.3851 180.442 23.3851C182.541 23.7281 188.049 24.6361 188.069 24.6562L188.11 24.6764C188.11 24.6764 187.484 44.5104 186.98 52.8031C186.475 61.0958 186.072 66.8866 185.769 70.1754C185.467 73.4845 185.144 76.3092 184.76 78.6498C184.377 81.0105 183.933 83.2299 183.429 85.3283C182.924 87.4267 182.379 89.5655 181.774 91.7042C181.169 93.843 180.664 95.7195 180.2 97.3336C179.736 98.9478 179.192 100.683 178.546 102.539C177.9 104.396 177.537 105.525 177.416 105.909C177.295 106.292 177.093 106.776 176.851 107.382C176.589 107.987 176.306 108.713 175.963 109.601C175.62 110.469 175.096 111.74 174.389 113.394C173.663 115.049 173.078 116.36 172.614 117.349C172.15 118.338 171.585 119.508 170.899 120.88C170.233 122.252 169.365 123.907 168.296 125.823C167.247 127.76 166.601 128.87 166.399 129.193C166.198 129.516 165.411 130.666 164.099 132.643C162.767 134.621 161.96 135.811 161.698 136.174C161.416 136.537 160.77 137.466 159.741 138.959C158.712 140.452 158.026 141.4 157.723 141.804C157.4 142.207 156.916 142.833 156.27 143.7C155.625 144.568 155.08 145.234 154.697 145.698C154.293 146.162 153.829 146.727 153.304 147.393C152.78 148.038 152.275 148.644 151.791 149.188C151.307 149.733 150.924 150.197 150.661 150.56C150.379 150.924 149.995 151.408 149.451 151.973C148.926 152.558 148.422 153.123 147.937 153.708C147.453 154.293 146.929 154.878 146.364 155.504C145.799 156.109 145.314 156.654 144.911 157.078C144.507 157.521 143.66 158.349 142.348 159.579C141.037 160.81 139.503 162.203 137.728 163.796C135.952 165.37 134.399 166.722 133.047 167.852C131.695 168.982 130.807 169.688 130.363 169.991C129.919 170.293 128.89 171.04 127.256 172.251C125.642 173.461 124.633 174.208 124.29 174.47C123.927 174.732 123.039 175.378 121.627 176.427C120.214 177.456 119.286 178.122 118.842 178.425C118.398 178.727 117.894 179.07 117.329 179.474C116.764 179.878 115.977 180.422 114.948 181.128C113.939 181.835 113.173 182.339 112.648 182.682C112.123 183.025 111.619 183.308 111.135 183.57C110.65 183.832 109.763 184.296 108.471 184.942C107.18 185.588 106.333 186.031 105.949 186.253C105.546 186.475 105.102 186.718 104.597 186.96C104.093 187.202 103.568 187.484 103.024 187.807C102.479 188.13 102.075 188.352 101.813 188.493C101.551 188.634 101.006 188.876 100.158 189.24C99.311 189.583 98.3021 189.986 97.1117 190.45C95.9212 190.914 95.1141 191.197 94.6501 191.338L93.9641 191.54L93.1973 191.378C92.6929 191.277 92.1481 191.096 91.5428 190.854C90.9375 190.612 89.969 190.188 88.5768 189.583C87.1846 188.977 86.3775 188.614 86.1758 188.473C85.974 188.332 85.4292 188.029 84.5616 187.545C83.694 187.081 83.0483 186.718 82.6044 186.496C82.1605 186.274 81.2929 185.83 80.0016 185.184C78.7103 184.538 77.8225 184.074 77.3383 183.812C76.854 183.55 76.3496 183.247 75.825 182.924C75.3004 182.581 74.6951 182.198 74.0292 181.734C73.3634 181.27 72.4554 180.664 71.3457 179.857C70.236 179.07 69.2675 178.384 68.4402 177.799C67.613 177.214 66.4225 176.347 64.8285 175.176C63.2547 174.006 62.2257 173.259 61.7818 172.957C61.3379 172.654 60.3694 171.948 58.8763 170.858C57.3832 169.749 56.5358 169.123 56.3744 168.982C56.213 168.841 55.4664 168.215 54.1348 167.106C52.8031 165.996 51.8749 165.209 51.3503 164.745C50.8257 164.281 49.6555 163.211 47.8799 161.577C46.0842 159.943 45.0148 158.954 44.6516 158.571C44.2884 158.207 43.7638 157.663 43.0778 156.936C42.3918 156.21 41.8268 155.645 41.4233 155.201C41.0197 154.757 40.6162 154.313 40.2127 153.829C39.8091 153.365 39.3854 152.861 38.9415 152.356C38.4976 151.852 38.0941 151.388 37.7309 150.984C37.3677 150.581 37.0651 150.217 36.8229 149.915C36.5606 149.592 36.2176 149.188 35.7737 148.684C35.3298 148.18 34.9465 147.715 34.6438 147.312C34.321 146.908 33.8973 146.384 33.3727 145.738C32.8481 145.092 32.4445 144.588 32.1621 144.205C31.8796 143.841 31.4357 143.256 30.8304 142.469C30.2251 141.683 29.8215 141.138 29.6198 140.835C29.4382 140.532 28.8934 139.786 28.046 138.575C27.1784 137.365 26.6134 136.578 26.3309 136.215C26.0484 135.851 25.3624 134.843 24.2729 133.188C23.1833 131.534 22.3561 130.283 21.8113 129.455C21.2665 128.608 20.7823 127.821 20.3585 127.095C19.9348 126.348 19.3497 125.259 18.583 123.786C17.8162 122.313 17.4531 121.566 17.4531 121.526C17.4531 121.485 17.0697 120.678 16.3232 119.105C15.5564 117.531 14.9713 116.28 14.5476 115.372C14.1239 114.464 13.5387 113.072 12.772 111.215C12.0053 109.359 11.2587 107.362 10.492 105.263C9.72529 103.165 8.89804 100.602 7.9699 97.5757C7.04176 94.5492 6.39609 92.3096 6.01273 90.8366C5.62937 89.3637 5.10477 87.225 4.43893 84.4204C3.77309 81.6158 3.36955 79.7595 3.22831 78.8919C3.10725 78.0243 2.82477 75.3206 2.40106 70.8413C1.97734 66.3418 1.71504 62.9521 1.5738 60.6721C1.45274 58.3921 1.29132 55.9709 1.12991 53.4084C0.968492 50.8459 0.72637 46.6491 0.443892 40.818C0.141238 34.9868 0 30.8707 0 28.4495V24.8176L0.403539 24.6361C0.686016 24.515 1.43256 24.3738 2.64318 24.1922C3.87397 24.0106 5.54866 23.7886 7.70759 23.5061C9.86653 23.2237 13.1352 22.7596 17.5136 22.1341C21.892 21.5086 25.0396 21.0446 26.9362 20.7621C28.8329 20.4796 31.3348 20.0357 34.4622 19.4506C37.5897 18.8453 40.2934 18.3005 42.5532 17.7557C44.8332 17.2311 46.7904 16.7469 48.4449 16.2828C50.0994 15.8187 51.3705 15.4757 52.2987 15.2336C53.2268 14.9915 54.1146 14.7494 54.962 14.4871C55.8094 14.2449 57.4841 13.7203 60.0264 12.9132C62.5486 12.1062 64.9294 11.2991 67.1489 10.4718C69.3684 9.64458 70.5386 9.22087 70.7 9.20069C70.8413 9.18051 71.9107 8.79715 73.888 8.01025C75.8653 7.24353 77.6611 6.53733 79.2752 5.91185C80.8692 5.28636 82.4632 4.6407 84.0168 4.01521C85.5704 3.38973 87.5276 2.56247 89.848 1.53345L93.3184 0H94.0851Z" stroke="#2F80ED" stroke-width="20" mask="url(#path-1-inside-1_24_7694)"/>
</svg>
